<svg xmlns="http://www.w3.org/2000/svg" version="1.0" width="512.000000pt" height="512.000000pt" viewBox="0 0 512.000000 512.000000" preserveAspectRatio="xMidYMid meet">

<g transform="translate(0.000000,512.000000) scale(0.100000,-0.100000)" fill="#ffffff" stroke="none">
<path d="M2485 5014 c-254 -36 -468 -225 -530 -469 -18 -69 -20 -211 -4 -287 14 -70 78 -201 125 -258 254 -305 711 -306 965 -3 49 59 113 190 128 261 16 76 14 218 -4 287 -53 208 -227 388 -433 449 -54 16 -195 27 -247 20z m216 -120 c226 -66 379 -268 379 -501 0 -317 -285 -563 -597 -515 -254 40 -443 259 -443 515 0 288 227 516 516 517 54 0 112 -6 145 -16z" fill="#ffffff"/>
<path d="M2522 4788 c-7 -7 -12 -22 -12 -34 0 -20 -6 -22 -74 -26 -80 -4 -110 -18 -150 -72 -18 -23 -21 -42 -21 -114 0 -99 15 -136 67 -174 31 -22 43 -23 213 -26 107 -2 185 -8 192 -14 18 -15 17 -132 -1 -147 -9 -8 -67 -11 -186 -9 -187 3 -174 -1 -202 63 -18 41 -60 46 -83 11 -26 -40 0 -112 59 -156 11 -9 51 -17 100 -20 80 -5 81 -5 84 -33 2 -16 14 -34 28 -43 22 -15 26 -15 48 0 14 9 26 27 28 43 3 27 5 28 78 33 41 3 85 12 98 20 38 24 64 76 69 138 10 105 -30 180 -109 209 -20 7 -97 12 -194 12 -110 1 -164 5 -172 13 -7 7 -12 40 -12 80 0 56 3 69 19 78 25 13 330 13 351 0 8 -5 19 -24 25 -41 14 -40 34 -54 68 -45 71 17 24 151 -66 185 -16 6 -57 11 -93 11 -60 0 -64 1 -64 23 0 30 -18 47 -50 47 -14 0 -31 -5 -38 -12z" fill="#ffffff"/>
<path d="M1040 4649 c-105 -20 -242 -115 -310 -214 -65 -95 -74 -132 -80 -345 l-5 -195 -75 -3 c-78 -3 -110 -18 -110 -53 0 -20 361 -428 391 -443 11 -5 27 -5 38 0 32 15 401 433 401 453 0 38 -27 51 -106 51 l-76 0 4 193 3 192 39 73 c21 40 52 84 69 98 50 42 141 82 213 95 45 8 75 19 87 32 22 25 21 33 -3 57 -19 19 -33 20 -227 19 -115 -1 -228 -5 -253 -10z m96 -139 c-58 -62 -112 -174 -126 -260 -5 -36 -10 -142 -10 -235 0 -200 4 -212 75 -217 l45 -3 -121 -135 c-67 -74 -124 -135 -128 -135 -4 0 -60 59 -124 130 l-116 130 43 3 c73 5 74 8 78 257 l3 220 29 60 c67 135 214 231 360 234 l39 1 -47 -50z" fill="#ffffff"/>
<path d="M3604 4479 c-121 -99 -223 -189 -228 -200 -5 -11 -5 -27 0 -38 15 -32 433 -401 453 -401 38 0 51 27 51 106 l0 76 198 -4 c192 -3 198 -4 254 -31 100 -49 177 -162 198 -293 16 -95 57 -126 98 -76 16 20 17 382 1 468 -29 159 -132 286 -289 355 -50 22 -72 24 -250 29 l-195 5 -3 75 c-3 78 -18 110 -52 110 -10 0 -116 -81 -236 -181z m186 -31 c0 -76 5 -78 236 -78 224 0 259 -6 347 -62 92 -58 148 -160 162 -293 l8 -70 -61 58 c-109 103 -197 127 -472 127 -217 0 -227 -3 -232 -75 l-3 -45 -133 119 c-73 66 -134 123 -134 128 -2 8 262 232 275 233 4 0 7 -19 7 -42z" fill="#ffffff"/>
<path d="M550 3157 c-105 -32 -184 -79 -265 -161 -121 -122 -178 -260 -178 -431 -1 -178 55 -317 178 -441 122 -124 267 -184 440 -184 153 0 284 46 395 137 306 251 306 715 0 966 -63 52 -166 104 -241 122 -95 22 -238 19 -329 -8z m303 -92 c261 -68 429 -320 389 -582 -40 -255 -259 -443 -515 -443 -235 0 -433 150 -501 379 -21 71 -21 211 0 282 51 175 187 311 359 360 75 22 193 24 268 4z" fill="#ffffff"/>
<path d="M698 2959 c-11 -6 -18 -22 -18 -38 0 -28 0 -28 -76 -33 -120 -8 -166 -54 -172 -173 -5 -94 19 -150 77 -183 36 -20 52 -22 214 -22 210 0 209 0 205 -93 -4 -83 -13 -87 -195 -87 -164 0 -191 7 -200 51 -3 16 -16 37 -29 46 -22 14 -26 14 -50 -2 -23 -15 -26 -22 -21 -58 11 -84 67 -128 171 -135 l75 -5 3 -31 c6 -64 98 -54 98 11 0 22 4 23 63 23 79 0 141 30 168 80 29 53 27 186 -4 231 -41 62 -70 69 -269 69 -171 0 -177 1 -192 22 -20 28 -21 108 -2 134 13 17 29 19 173 22 176 3 201 -4 215 -53 8 -31 32 -55 54 -55 23 0 44 31 44 63 0 86 -77 147 -187 147 -59 0 -63 1 -63 23 0 26 -28 57 -51 57 -8 0 -22 -5 -31 -11z" fill="#ffffff"/>
<path d="M4242 3166 c-70 -17 -186 -76 -242 -122 -189 -157 -270 -403 -210 -638 33 -130 105 -242 210 -330 57 -47 188 -111 258 -125 76 -16 218 -14 287 4 229 58 413 253 460 487 19 97 19 139 0 236 -47 235 -229 428 -460 487 -71 18 -229 18 -303 1z m283 -101 c227 -60 387 -268 387 -505 0 -289 -231 -520 -519 -520 -256 0 -475 188 -515 443 -40 259 127 512 385 582 70 18 189 18 262 0z" fill="#ffffff"/>
<path d="M4357 2952 c-10 -10 -17 -28 -17 -40 0 -20 -5 -22 -63 -22 -79 0 -141 -30 -168 -80 -29 -53 -27 -186 4 -231 41 -62 70 -69 269 -69 171 0 177 -1 192 -22 20 -28 21 -108 2 -134 -13 -17 -29 -19 -173 -22 -176 -3 -201 4 -215 53 -8 31 -32 55 -54 55 -23 0 -44 -31 -44 -63 0 -86 77 -147 187 -147 59 0 63 -1 63 -23 0 -65 92 -75 98 -11 l3 31 75 5 c120 8 166 54 172 173 5 94 -19 150 -77 183 -36 20 -52 22 -214 22 -210 0 -209 0 -205 93 4 83 13 87 195 87 164 0 191 -7 200 -51 3 -16 16 -37 29 -46 22 -14 26 -14 50 2 23 15 26 22 21 58 -11 84 -67 128 -171 135 -76 5 -76 5 -76 33 0 46 -53 65 -83 31z" fill="#ffffff"/>
<path d="M1844 3116 c-88 -39 -150 -139 -142 -231 2 -29 14 -70 25 -93 l20 -41 -44 -43 c-135 -133 -193 -347 -126 -469 54 -100 144 -134 354 -134 l137 0 5 -60 c11 -138 95 -227 257 -271 91 -25 368 -26 457 -1 175 47 263 147 263 296 l0 46 143 0 c160 0 229 16 290 66 96 79 104 236 21 404 -19 39 -54 93 -79 121 l-44 51 19 52 c26 68 25 125 -4 186 -41 88 -114 135 -213 135 -141 0 -247 -119 -230 -260 3 -27 13 -63 22 -80 16 -31 16 -31 -25 -77 -22 -25 -55 -71 -72 -102 -17 -31 -33 -58 -35 -60 -2 -3 -15 6 -29 20 l-25 25 33 63 c102 198 -40 431 -262 431 -232 0 -375 -257 -251 -452 l29 -45 -34 -27 -33 -26 -27 51 c-14 29 -48 76 -75 105 l-50 52 22 36 c12 20 23 61 26 94 9 100 -51 199 -143 238 -42 18 -139 17 -180 0z m155 -104 c37 -20 71 -73 71 -110 0 -12 -6 -38 -14 -56 -46 -111 -213 -101 -247 15 -11 34 -10 46 7 86 32 76 111 104 183 65z m1264 -6 c14 -10 34 -38 43 -63 16 -41 16 -50 3 -86 -17 -50 -57 -75 -122 -76 -62 -1 -105 21 -123 64 -19 46 -18 73 4 114 36 67 129 90 195 47z m-638 -29 c79 -30 125 -95 125 -174 0 -68 -18 -110 -63 -150 -73 -64 -174 -64 -252 -1 -46 39 -65 82 -65 150 0 131 133 222 255 175z m564 -317 c14 1 44 7 66 15 l40 14 38 -37 c99 -96 153 -270 111 -357 -20 -42 -65 -64 -158 -77 -74 -10 -217 -4 -245 11 -9 5 -24 33 -35 63 -10 29 -33 78 -51 108 -30 53 -31 57 -19 94 19 54 51 105 96 152 l40 42 45 -14 c26 -8 58 -14 72 -14z m-1313 -1 c34 -9 59 -9 104 1 55 12 60 11 89 -9 38 -27 109 -133 116 -174 5 -26 -1 -44 -30 -92 -19 -33 -43 -83 -52 -112 -15 -48 -20 -53 -52 -60 -54 -12 -240 -8 -289 6 -101 28 -131 100 -97 227 19 71 77 168 120 202 32 26 32 26 91 11z m587 -144 c46 -19 142 -19 197 0 42 15 43 15 81 -16 78 -62 142 -165 184 -299 68 -215 -10 -317 -258 -340 -201 -19 -379 14 -444 82 -54 58 -65 126 -38 233 27 105 80 200 158 281 40 41 75 74 78 74 4 0 23 -7 42 -15z" fill="#ffffff"/>
<path d="M4222 1723 c-60 -54 -382 -426 -382 -442 0 -38 27 -51 106 -51 l76 0 -4 -192 c-3 -188 -4 -195 -31 -250 -49 -100 -162 -177 -293 -198 -75 -13 -106 -35 -97 -70 10 -39 35 -42 272 -38 201 4 233 7 285 26 129 48 215 126 274 250 l37 77 5 195 5 195 75 3 c78 3 110 18 110 53 0 15 -346 432 -374 451 -18 13 -43 9 -64 -9z m153 -247 c63 -74 115 -137 115 -140 0 -3 -19 -6 -42 -6 -76 0 -78 -5 -78 -236 0 -224 -6 -259 -62 -347 -58 -92 -160 -148 -293 -162 l-70 -8 62 66 c100 107 123 195 123 472 0 200 -4 212 -75 217 l-45 3 123 137 c67 76 123 138 124 138 1 0 54 -60 118 -134z" fill="#ffffff"/>
<path d="M490 1510 c-19 -19 -20 -33 -20 -227 0 -148 5 -226 15 -271 36 -154 137 -271 286 -334 48 -20 77 -23 254 -28 l200 -5 3 -75 c3 -79 18 -110 53 -110 21 0 429 351 443 381 5 11 5 26 0 37 -16 32 -433 402 -453 402 -38 0 -51 -27 -51 -106 l0 -76 -192 4 -193 3 -63 34 c-34 19 -76 49 -92 68 -46 52 -88 143 -100 219 -8 47 -18 75 -32 87 -26 22 -34 21 -58 -3z m252 -470 c85 -39 162 -50 363 -50 200 0 212 4 217 75 l3 45 135 -121 c74 -66 136 -124 137 -127 1 -4 -58 -58 -130 -120 l-132 -114 -3 45 c-5 75 -6 75 -262 79 -222 3 -226 3 -280 30 -79 39 -132 88 -167 155 -30 56 -53 145 -53 206 l0 30 55 -52 c30 -29 83 -65 117 -81z" fill="#ffffff"/>
<path d="M2402 1330 c-179 -47 -319 -164 -402 -335 -46 -97 -60 -159 -60 -273 0 -171 58 -310 181 -433 89 -90 196 -148 321 -173 96 -20 135 -20 235 -1 232 44 430 230 488 460 18 69 20 211 4 287 -15 71 -79 202 -128 261 -156 187 -406 268 -639 207z m271 -95 c233 -49 407 -266 407 -508 0 -288 -231 -519 -520 -519 -142 0 -267 52 -368 154 -205 204 -203 532 4 735 129 126 299 176 477 138z" fill="#ffffff"/>
<path d="M2533 1125 c-12 -8 -23 -28 -25 -43 -3 -26 -5 -27 -78 -32 -41 -3 -85 -12 -98 -20 -38 -24 -64 -76 -69 -138 -10 -105 30 -180 109 -209 20 -7 97 -12 193 -12 111 -1 165 -5 173 -13 7 -7 12 -39 12 -75 0 -51 -3 -64 -19 -73 -25 -13 -330 -13 -351 0 -8 5 -19 24 -25 41 -14 40 -34 54 -68 45 -71 -17 -24 -151 66 -185 16 -6 57 -11 93 -11 63 0 64 0 64 -28 0 -35 16 -52 50 -52 34 0 50 17 50 52 0 28 1 28 60 28 77 0 120 18 156 66 26 34 29 45 29 118 0 93 -16 131 -67 168 -31 22 -43 23 -213 26 -107 2 -185 8 -192 14 -18 15 -17 132 1 147 9 8 68 11 187 9 l174 -3 13 -30 c24 -54 29 -60 55 -63 39 -5 62 34 48 85 -23 79 -63 107 -165 113 -79 5 -81 6 -84 32 -3 24 -34 58 -52 58 -3 0 -15 -7 -27 -15z" fill="#ffffff"/>
</g>
</svg>