<?xml version="1.0" encoding="UTF-8"?>
<svg version="1.1" xmlns="http://www.w3.org/2000/svg" width="512" height="512">
<path d="M0 0 C1.10040115 0.38261993 2.20080231 0.76523987 3.33454895 1.15945435 C6.91243195 2.40593857 10.48547705 3.66570655 14.05859375 4.92578125 C16.53502458 5.79145146 19.01175247 6.65627231 21.48876953 7.52026367 C27.67417943 9.67998271 33.85584153 11.85021326 40.03656006 14.02331543 C45.16249435 15.82351035 50.29202976 17.61333043 55.421875 19.40234375 C60.47164187 21.16446581 65.52118701 22.92719985 70.56860352 24.69604492 C71.31274002 24.95676285 72.05687653 25.21748077 72.82356262 25.48609924 C74.26475349 25.99256645 75.70520127 26.50115415 77.14482117 27.0120697 C80.82361302 28.31571626 84.51063697 29.57566883 88.22363281 30.77880859 C88.99832916 31.03595139 89.77302551 31.29309418 90.57119751 31.55802917 C92.04239703 32.04561856 93.51781218 32.52074492 94.99789429 32.98066711 C99.67932867 34.55251457 102.03138788 35.95283399 104.49609375 40.23828125 C105.09629109 44.25381011 105.04215493 48.23923475 105.01367188 52.29296875 C105.02068115 53.51461731 105.02769043 54.73626587 105.03491211 55.99493408 C105.04948653 59.33819162 105.04609149 62.68045711 105.03339577 66.02365875 C105.02325208 69.52603974 105.03266523 73.02837902 105.03894043 76.53076172 C105.0462129 82.41186106 105.03663983 88.29275933 105.01757812 94.17382812 C104.99580992 100.96829022 105.00286159 107.76227218 105.02488375 114.55672264 C105.04304935 120.3955362 105.04559047 126.23420541 105.03512907 132.0730381 C105.02890042 135.5580291 105.02804091 139.04279458 105.04127502 142.527771 C105.05499994 146.41323437 105.03596476 150.2981621 105.01367188 154.18359375 C105.0217688 155.3359552 105.02986572 156.48831665 105.03820801 157.67559814 C104.95608331 165.39224 104.95608331 165.39224 102.80596924 169.34686279 C100.24578029 171.44324792 98.15165063 172.49052553 95.02050781 173.55566406 C93.91280029 173.94145126 92.80509277 174.32723846 91.66381836 174.72471619 C90.45862549 175.12622391 89.25343262 175.52773163 88.01171875 175.94140625 C86.73427885 176.38005324 85.45735232 176.82019774 84.1809082 177.26173401 C81.4581892 178.20026247 78.73235678 179.12882183 76.00354004 180.04946899 C71.73103093 181.4909952 67.46597126 182.95366475 63.20214844 184.4206543 C58.86928049 185.91046402 54.53606762 187.39919118 50.20025635 188.88041687 C36.67876013 193.50096748 23.20782336 198.25887147 9.74609375 203.05078125 C6.75554537 204.11327948 3.7647862 205.17518166 0.77392578 206.23680115 C-0.96909321 206.85564737 -2.71194407 207.47496746 -4.45458984 208.09486389 C-15.16040689 211.90086416 -21.41471749 211.69931348 -31.97265625 207.8984375 C-32.98601044 207.54480133 -33.99936462 207.19116516 -35.04342651 206.82681274 C-38.36788054 205.66330898 -41.68579594 204.48224176 -45.00390625 203.30078125 C-47.31945477 202.48633494 -49.63537813 201.6729536 -51.95166016 200.8605957 C-57.94898865 198.7536964 -63.9408517 196.63169227 -69.93127441 194.50524902 C-74.5504861 192.86713107 -79.17241025 191.23675691 -83.79449463 189.60676575 C-105.45376348 181.96831976 -105.45376348 181.96831976 -114.13482666 178.85493469 C-118.01390432 177.46505406 -121.89369654 176.09775778 -125.81347656 174.82666016 C-127.06483398 174.41206543 -128.31619141 173.9974707 -129.60546875 173.5703125 C-130.66330566 173.23362549 -131.72114258 172.89693848 -132.81103516 172.55004883 C-136.16659933 170.91546621 -137.46039781 169.35822554 -139.50390625 166.23828125 C-140.02288818 163.03005981 -140.02288818 163.03005981 -140.04980469 159.34814453 C-140.06013103 158.67102417 -140.07045738 157.99390381 -140.08109665 157.29626465 C-140.11058283 155.05013453 -140.11199717 152.80490297 -140.11328125 150.55859375 C-140.12848945 148.96587461 -140.14541146 147.37317103 -140.16394043 145.78048706 C-140.20843197 141.52088608 -140.22845904 137.26150482 -140.24293518 133.00170898 C-140.26119497 128.61041996 -140.29935483 124.21930128 -140.33496094 119.828125 C-140.38867369 112.85842828 -140.4281066 105.88878675 -140.45703125 98.91894531 C-140.48701848 91.73556255 -140.54394165 84.55311845 -140.6227417 77.37008667 C-140.66946911 72.98064441 -140.7032325 68.59119223 -140.73205566 64.20159912 C-140.74654018 62.23724779 -140.76528967 60.27292296 -140.78845215 58.30865479 C-140.81764801 55.63919487 -140.82774269 52.97038044 -140.83203125 50.30078125 C-140.84431763 49.54296356 -140.856604 48.78514587 -140.8692627 48.00436401 C-140.85038568 43.54324721 -140.48741188 40.62361077 -137.50390625 37.23828125 C-131.21349209 33.4910479 -124.35419385 31.30418277 -117.44140625 28.96484375 C-116.27259415 28.56413666 -115.10378204 28.16342957 -113.89955139 27.75057983 C-111.39795419 26.89360519 -108.89579162 26.03859516 -106.3923645 25.18701172 C-102.47502817 23.85434044 -98.56034985 22.51398952 -94.64624023 21.171875 C-93.32975831 20.7205182 -92.01327577 20.26916322 -90.6967926 19.81781006 C-90.04555483 19.59451775 -89.39431705 19.37122543 -88.7233448 19.14116669 C-86.74953954 18.46468594 -84.77549038 17.7889214 -82.80137634 17.11334229 C-71.37342181 13.20141622 -59.9650421 9.23478459 -48.56640625 5.23828125 C-47.75872803 4.95559387 -46.9510498 4.67290649 -46.11889648 4.38165283 C-44.57095101 3.83987192 -43.02320297 3.29752651 -41.47567749 2.75454712 C-40.04852031 2.25442166 -38.62067188 1.75626318 -37.19204712 1.26034546 C-34.20692716 0.21884871 -31.25626962 -0.86252456 -28.32763672 -2.0546875 C-27.3945166 -2.43238281 -26.46139648 -2.81007812 -25.5 -3.19921875 C-24.35615845 -3.69228516 -24.35615845 -3.69228516 -23.18920898 -4.1953125 C-15.20774121 -5.87882966 -7.43394902 -2.6425049 0 0 Z M-25.703125 17.58984375 C-26.43468307 17.84070236 -27.16624115 18.09156097 -27.91996765 18.35002136 C-30.34538125 19.18320268 -32.76839807 20.02313278 -35.19140625 20.86328125 C-36.87636404 21.44389613 -38.56142419 22.02421403 -40.24658203 22.60424805 C-59.02397828 29.07691998 -77.76643074 35.65109714 -96.50390625 42.23828125 C-96.50390625 43.55828125 -96.50390625 44.87828125 -96.50390625 46.23828125 C-92.61474451 47.61216262 -88.71670102 48.95886478 -84.81640625 50.30078125 C-83.71361328 50.69072266 -82.61082031 51.08066406 -81.47460938 51.48242188 C-79.87456055 52.02866211 -79.87456055 52.02866211 -78.2421875 52.5859375 C-77.26290283 52.92633057 -76.28361816 53.26672363 -75.2746582 53.61743164 C-70.40907859 54.70767474 -66.17124011 52.86897895 -61.55883789 51.27636719 C-60.38313736 50.87214539 -59.20743683 50.46792358 -57.99610901 50.05145264 C-56.71872943 49.60860919 -55.44138141 49.16567466 -54.1640625 48.72265625 C-52.83720202 48.26497861 -51.51025031 47.80756539 -50.18321228 47.35040283 C-47.39937887 46.39065728 -44.61627418 45.42883847 -41.83374023 44.46533203 C-38.30839748 43.24461784 -34.78190493 42.02727191 -31.25492191 40.811306 C-27.84924999 39.63703873 -24.44411619 38.46121482 -21.0390625 37.28515625 C-19.79270523 36.85475037 -18.54634796 36.42434448 -17.26222229 35.980896 C-14.86832039 35.1521641 -12.47585318 34.31927379 -10.08499146 33.48181152 C-7.56838288 32.60792029 -5.05012523 31.75385324 -2.52120972 30.91760254 C-1.23341239 30.48199139 0.05433935 30.04624542 1.34204102 29.61035156 C3.07696556 29.03477509 3.07696556 29.03477509 4.84693909 28.4475708 C6.15827065 27.84897247 6.15827065 27.84897247 7.49609375 27.23828125 C7.82609375 26.24828125 8.15609375 25.25828125 8.49609375 24.23828125 C4.56161666 22.73026557 0.62304398 21.23325211 -3.31640625 19.73828125 C-4.43595703 19.30902344 -5.55550781 18.87976563 -6.70898438 18.4375 C-7.78212891 18.03144531 -8.85527344 17.62539062 -9.9609375 17.20703125 C-11.44557495 16.64145508 -11.44557495 16.64145508 -12.96020508 16.06445312 C-17.69413729 14.52691338 -21.20778572 16.02394286 -25.703125 17.58984375 Z M34.67114258 36.83959961 C33.68773392 37.19094467 32.70432526 37.54228973 31.69111633 37.90428162 C30.62257919 38.29164993 29.55404205 38.67901825 28.453125 39.078125 C26.78028694 39.67869469 26.78028694 39.67869469 25.07365417 40.29139709 C22.69633173 41.14589514 20.31983408 42.00269072 17.9440918 42.86157227 C14.39739382 44.1436806 10.84839336 45.41921382 7.29882812 46.69335938 C1.51091488 48.7739229 -4.26993378 50.87331283 -10.04779053 52.98162842 C-13.54863247 54.25454382 -17.05471071 55.51229699 -20.56103516 56.77001953 C-22.76752004 57.57250723 -24.97374906 58.37569891 -27.1796875 59.1796875 C-28.20853561 59.54488998 -29.23738373 59.91009247 -30.29740906 60.28636169 C-31.23349503 60.63086868 -32.16958099 60.97537567 -33.1340332 61.33032227 C-33.95724564 61.62761734 -34.78045807 61.92491241 -35.62861633 62.23121643 C-37.85604823 63.1510746 -37.85604823 63.1510746 -38.50390625 66.23828125 C-35.41893595 67.51986994 -32.30969562 68.72780693 -29.19140625 69.92578125 C-28.32966797 70.28478516 -27.46792969 70.64378906 -26.58007812 71.01367188 C-21.73247337 72.83377626 -18.36594772 73.56345645 -13.34277344 72.05102539 C-12.38300095 71.76435501 -11.42322845 71.47768463 -10.43437195 71.18232727 C-5.80391143 69.69062995 -1.21083871 68.11807682 3.3671875 66.47265625 C4.87080589 65.93792694 4.87080589 65.93792694 6.40480042 65.39239502 C9.58243017 64.26147855 12.75806505 63.12508223 15.93359375 61.98828125 C19.06625312 60.87098307 22.19932017 59.75483391 25.33242798 58.63879395 C27.38717058 57.90663334 29.44167755 57.17381109 31.49594116 56.44030762 C39.13766472 53.71358512 46.79221005 51.0249891 54.45909119 48.36981201 C58.54824884 46.97692454 58.54824884 46.97692454 62.49609375 45.23828125 C61.85066841 42.16415173 61.85066841 42.16415173 59.68603516 41.25512695 C58.5285376 40.83880005 58.5285376 40.83880005 57.34765625 40.4140625 C56.5071875 40.10791016 55.66671875 39.80175781 54.80078125 39.48632812 C53.91648437 39.17759766 53.0321875 38.86886719 52.12109375 38.55078125 C51.24453125 38.23044922 50.36796875 37.91011719 49.46484375 37.58007812 C43.78302768 35.54279087 40.48929389 34.74579884 34.67114258 36.83959961 Z M-120.50390625 59.23828125 C-120.50390625 90.91828125 -120.50390625 122.59828125 -120.50390625 155.23828125 C-113.26279479 158.48422614 -113.26279479 158.48422614 -105.921875 161.29370117 C-104.4222522 161.82026558 -104.4222522 161.82026558 -102.89233398 162.35746765 C-101.83602783 162.72419083 -100.77972168 163.090914 -99.69140625 163.46875 C-98.00156616 164.06083 -98.00156616 164.06083 -96.27758789 164.66487122 C-92.68758765 165.92204921 -89.09584992 167.17416799 -85.50390625 168.42578125 C-81.98383368 169.65542559 -78.46415309 170.88617922 -74.94482422 172.11795044 C-72.61357996 172.93362194 -70.28187521 173.74797856 -67.94970703 174.56100464 C-62.0682365 176.61631571 -56.20211894 178.70537272 -50.35546875 180.85791016 C-49.21343994 181.27671951 -48.07141113 181.69552887 -46.89477539 182.12702942 C-44.72991911 182.923497 -42.56749032 183.72660478 -40.40795898 184.53739929 C-38.95691772 185.07056511 -38.95691772 185.07056511 -37.4765625 185.61450195 C-36.63359619 185.92909866 -35.79062988 186.24369537 -34.92211914 186.56782532 C-32.1191052 187.46092629 -32.1191052 187.46092629 -27.50390625 187.23828125 C-27.50390625 155.22828125 -27.50390625 123.21828125 -27.50390625 90.23828125 C-41.10916478 85.11570108 -41.10916478 85.11570108 -54.81640625 80.30078125 C-55.72068359 79.98560547 -56.62496094 79.67042969 -57.55664062 79.34570312 C-58.42224609 79.05373047 -59.28785156 78.76175781 -60.1796875 78.4609375 C-60.94192627 78.20062744 -61.70416504 77.94031738 -62.48950195 77.67211914 C-64.69333064 77.01871398 -64.69333064 77.01871398 -67.50390625 78.23828125 C-67.51325195 79.42905273 -67.52259766 80.61982422 -67.53222656 81.84667969 C-67.57212012 86.26763217 -67.63787698 90.68788828 -67.71142578 95.10839844 C-67.73963911 97.02106781 -67.76085186 98.93385385 -67.77490234 100.84667969 C-67.79632706 103.59761298 -67.84297365 106.347143 -67.89453125 109.09765625 C-67.89637421 110.3791153 -67.89637421 110.3791153 -67.89825439 111.6864624 C-68.04451848 117.62442582 -68.04451848 117.62442582 -70.40332031 120.77636719 C-72.81634709 122.45572613 -74.08538785 122.77826095 -77.00390625 122.73828125 C-78.133125 122.75375 -78.133125 122.75375 -79.28515625 122.76953125 C-82.57098848 121.98278269 -83.50914439 121.00696852 -85.50390625 118.23828125 C-86.10180334 114.72133019 -86.0370003 111.23187038 -86.0078125 107.671875 C-86.01723373 106.6414357 -86.02665497 105.6109964 -86.03636169 104.54933167 C-86.06504775 101.25794583 -86.06808792 97.96728215 -86.06640625 94.67578125 C-86.07000783 91.38081539 -86.07946701 88.08637469 -86.10716248 84.79151917 C-86.12401737 82.74156882 -86.12677494 80.691445 -86.114151 78.64146423 C-86.12103439 77.71362625 -86.12791779 76.78578827 -86.13500977 75.82983398 C-86.134048 75.01361069 -86.13308624 74.19738739 -86.13209534 73.35643005 C-86.59660251 70.71020513 -87.40862927 69.8720855 -89.50390625 68.23828125 C-92.32017492 67.0023474 -92.32017492 67.0023474 -95.5625 65.9765625 C-96.75294922 65.58017578 -97.94339844 65.18378906 -99.16992188 64.77539062 C-100.41451172 64.37126953 -101.65910156 63.96714844 -102.94140625 63.55078125 C-104.18212891 63.13505859 -105.42285156 62.71933594 -106.70117188 62.29101562 C-113.46173513 59.97774308 -113.46173513 59.97774308 -120.50390625 59.23828125 Z M76.39331055 60.80786133 C75.3715271 61.15310852 74.34974365 61.49835571 73.29699707 61.85406494 C72.19094116 62.23480164 71.08488525 62.61553833 69.9453125 63.0078125 C68.79035278 63.40023132 67.63539307 63.79265015 66.44543457 64.19696045 C63.33142942 65.25673563 60.21938728 66.32202798 57.10833359 67.39043045 C54.54750217 68.2690152 51.98528151 69.1435089 49.42308521 70.0181036 C35.15704796 74.88869693 20.90018946 79.78750511 6.68359375 84.80078125 C5.44891357 85.23430908 4.2142334 85.66783691 2.94213867 86.11450195 C1.28855347 86.7036438 1.28855347 86.7036438 -0.3984375 87.3046875 C-1.32503174 87.63412354 -2.25162598 87.96355957 -3.20629883 88.30297852 C-5.71647385 89.23551137 -5.71647385 89.23551137 -8.50390625 91.23828125 C-8.79528922 94.24783514 -8.89229642 97.05119969 -8.86035156 100.0625 C-8.86239594 100.9764151 -8.86444031 101.8903302 -8.86654663 102.8319397 C-8.86956328 105.86342143 -8.85105097 108.89436386 -8.83203125 111.92578125 C-8.82897506 114.02563339 -8.82709787 116.12548756 -8.82635498 118.2253418 C-8.82174634 122.63044976 -8.80729898 127.03537547 -8.78515625 131.44042969 C-8.75687347 137.09678256 -8.74594538 142.75299171 -8.74147415 148.40940857 C-8.73732374 152.74671883 -8.72750943 157.08399982 -8.71559906 161.42129517 C-8.70988786 163.50737268 -8.70513198 165.59345304 -8.70133209 167.67953491 C-8.69448244 170.5910948 -8.68085611 173.50253927 -8.66503906 176.4140625 C-8.6639212 177.28269928 -8.66280334 178.15133606 -8.66165161 179.04629517 C-8.74908577 183.27684985 -8.74908577 183.27684985 -7.50390625 187.23828125 C-0.73879241 186.63960394 5.29601256 184.39109328 11.6640625 182.1171875 C12.85292557 181.69839828 14.04178864 181.27960907 15.26667786 180.84812927 C18.43538086 179.73050817 21.60197563 178.6072695 24.7677002 177.48126221 C27.88181994 176.3751991 30.99867791 175.27690919 34.11523438 174.17773438 C40.30874957 171.99121585 46.49831244 169.79375379 52.6864624 167.59210205 C55.97325525 166.42325455 59.2617453 165.25925097 62.55064297 164.09634113 C65.17230278 163.16882894 67.79310684 162.23891627 70.41372108 161.30845451 C72.26476452 160.65201245 74.11677234 159.99829183 75.96879578 159.34461975 C77.07519913 158.9510881 78.18160248 158.55755646 79.3215332 158.15209961 C80.29959427 157.80561874 81.27765533 157.45913788 82.28535461 157.10215759 C84.43590672 156.43221779 84.43590672 156.43221779 85.49609375 155.23828125 C85.59137595 152.25529911 85.6216155 149.2955178 85.60961914 146.31225586 C85.60976517 145.37576706 85.60991119 144.43927826 85.61006165 143.47441101 C85.60936212 140.36312586 85.6015679 137.25189976 85.59375 134.140625 C85.59188596 131.98971082 85.59046199 129.83879622 85.58946228 127.68788147 C85.585636 122.01446367 85.57580477 116.3410713 85.5647583 110.66766357 C85.55454655 104.88326359 85.54996517 99.09885952 85.54492188 93.31445312 C85.5341826 81.95571797 85.51710486 70.59700172 85.49609375 59.23828125 C81.80118342 59.23828125 79.80840259 59.64320193 76.39331055 60.80786133 Z " fill="#000000" transform="translate(273.50390625,152.76171875)"/>
<path d="M0 0 C1.23073242 0.19287598 1.23073242 0.19287598 2.48632812 0.38964844 C21.29646382 3.4723771 39.75449278 9.95270184 57.125 17.6875 C57.89900146 18.03127686 58.67300293 18.37505371 59.47045898 18.72924805 C65.73959292 21.63851694 72.08242706 25.08242706 77 30 C77.54914197 38.51170047 77.54914197 38.51170047 75 42 C70.87591516 44.74938989 67.74408952 44.93853261 63 44 C59.79132752 42.59575105 56.73031755 41.05183878 53.63769531 39.4152832 C6.38494375 14.51605132 -50.77107446 10.81272684 -101.59765625 26.22998047 C-115.28279337 30.61645633 -128.3654291 36.16959283 -141 43 C-141.8979126 43.47904785 -141.8979126 43.47904785 -142.81396484 43.96777344 C-182.75279607 65.41217178 -213.00310774 100.18828957 -232 141 C-232.53238281 142.13566406 -233.06476563 143.27132812 -233.61328125 144.44140625 C-256.5920797 195.68353304 -255.54002886 253.73668965 -236.23242188 305.82861328 C-230.69255799 320.08432482 -223.56858942 333.35128546 -215 346 C-214.32541748 347.00160156 -214.32541748 347.00160156 -213.63720703 348.0234375 C-212.29296567 350.00492423 -210.93287774 351.97401511 -209.5625 353.9375 C-209.14935547 354.53554443 -208.73621094 355.13358887 -208.31054688 355.74975586 C-205.83472521 359.22454863 -205.83472521 359.22454863 -202 361 C-202.33 359.80375 -202.66 358.6075 -203 357.375 C-203.87015057 353.79981612 -204.49240474 350.69303558 -204 347 C-202.20006226 344.30009338 -200.916227 342.4581135 -198 341 C-190.96654346 340.42348717 -190.96654346 340.42348717 -187.53881836 342.46801758 C-184.06010092 345.93736834 -183.35891534 349.25080097 -182.2109375 353.9375 C-181.98097076 354.81341797 -181.75100403 355.68933594 -181.5140686 356.59179688 C-180.78368846 359.39037018 -180.07909508 362.19471159 -179.375 365 C-178.8949076 366.85590374 -178.41315273 368.71137828 -177.9296875 370.56640625 C-176.79237849 374.94567598 -175.68124473 379.33103627 -174.57897949 383.71923828 C-174.06545499 385.74215454 -173.53265749 387.7601566 -172.99707031 389.77734375 C-172.72217773 390.82019531 -172.44728516 391.86304688 -172.1640625 392.9375 C-171.93412598 393.79214844 -171.70418945 394.64679688 -171.46728516 395.52734375 C-170.62368638 399.99127707 -170.31178661 402.96767992 -172.875 406.8125 C-175.443708 409.45675823 -176.25435797 409.94040593 -179.92333984 410.23364258 C-185.19592287 410.14848589 -190.16567363 408.62591469 -195.2265625 407.26171875 C-196.2924057 406.98028519 -197.3582489 406.69885162 -198.45639038 406.40888977 C-200.70154618 405.81369374 -202.94555942 405.21417302 -205.18847656 404.6105957 C-208.61727558 403.68957488 -212.05039663 402.78625866 -215.484375 401.88476562 C-217.66955174 401.30313768 -219.85445732 400.72048984 -222.0390625 400.13671875 C-223.06311188 399.86784348 -224.08716125 399.5989682 -225.14224243 399.32194519 C-230.9084048 397.75683012 -235.68027723 396.31972277 -240 392 C-240.74609214 387.58417561 -240.50880559 383.97690673 -238.4375 380 C-235.28289858 377.41160909 -232.98064255 376.73416942 -229 377 C-224.61445259 377.81460518 -220.30958336 378.85293796 -216 380 C-218.65018537 375.92232842 -221.4560823 372.11232393 -224.5 368.3125 C-261.23611843 320.98696665 -276.72366422 259.60082446 -269.75390625 200.34375 C-263.12943793 150.62762773 -242.03459403 103.62762173 -206.68945312 67.72460938 C-205.04784472 66.04884034 -203.43604693 64.3486666 -201.828125 62.640625 C-193.64756555 54.06256757 -184.62376965 46.89669629 -175 40 C-174.37367676 39.55027832 -173.74735352 39.10055664 -173.10205078 38.63720703 C-122.93742461 3.03259061 -60.41481251 -9.69962586 0 0 Z " fill="#000000" transform="translate(296,28)"/>
<path d="M0 0 C1.49108025 0.38317635 1.49108025 0.38317635 3.01228333 0.77409363 C5.09977366 1.31300817 7.18641007 1.85524032 9.2722168 2.40063477 C12.45498046 3.2299344 15.64220862 4.04019034 18.83007812 4.84960938 C20.86618512 5.37775218 22.90200301 5.90701108 24.9375 6.4375 C26.35798897 6.79555473 26.35798897 6.79555473 27.80717468 7.1608429 C33.02189136 8.54557629 37.04028617 10.02525886 41.26953125 13.41796875 C42.87039752 16.61970129 42.76870214 19.94373934 42.26953125 23.41796875 C40.47589214 26.22800335 39.2507219 27.92737343 36.26953125 29.41796875 C29.88024384 29.96173789 24.35388396 28.2663797 18.26953125 26.41796875 C20.8350176 30.37283964 23.55074641 34.13903263 26.43017578 37.87036133 C32.71951611 46.04730828 38.24524938 54.41513395 43.26953125 63.41796875 C43.67413574 64.13291504 44.07874023 64.84786133 44.49560547 65.58447266 C74.38079954 118.74817623 81.28589158 182.88284091 64.890625 241.5234375 C63.50225963 246.21048989 61.93134331 250.82148799 60.26953125 255.41796875 C59.98770996 256.20413574 59.70588867 256.99030273 59.41552734 257.80029297 C52.04533185 278.02254664 42.19506708 297.18702733 29.26953125 314.41796875 C28.82254883 315.01899414 28.37556641 315.62001953 27.91503906 316.23925781 C21.24510746 325.14690585 13.96875881 333.39146266 6.26953125 341.41796875 C5.48707031 342.24167969 4.70460938 343.06539063 3.8984375 343.9140625 C-19.97160594 368.46489149 -51.5071703 386.46693886 -83.73046875 397.41796875 C-84.55901367 397.7001123 -85.38755859 397.98225586 -86.24121094 398.27294922 C-141.45285037 416.7094215 -201.71626026 412.05366189 -254.73046875 388.79296875 C-255.97727417 388.25289185 -255.97727417 388.25289185 -257.24926758 387.7019043 C-261.91846051 385.57558548 -265.41613509 383.47025952 -268.73046875 379.41796875 C-269.86528285 375.44611941 -270.16770699 373.40175478 -268.48046875 369.60546875 C-266.73046875 367.41796875 -266.73046875 367.41796875 -263.73046875 365.41796875 C-256.96279429 364.7178645 -252.71288268 366.42069443 -246.73046875 369.41796875 C-196.86746346 392.97426281 -138.72264251 396.01020189 -86.73046875 377.41796875 C-33.43244926 357.22554789 10.4457814 318.77418926 34.3046875 266.61376953 C56.76763661 215.49237169 60.22060956 157.1345742 40.21875 104.5222168 C31.61826321 82.95897708 20.52521994 63.68636981 6.26953125 45.41796875 C5.22384628 48.67539026 5.39435502 51.0052222 5.95703125 54.35546875 C6.40615067 58.16175584 6.48385432 59.05583667 4.45703125 62.48046875 C1.11239002 65.44286527 -1.12230486 65.59468683 -5.5625 65.84375 C-8.77773984 65.21228848 -10.35982395 63.6461983 -12.73046875 61.41796875 C-13.93725586 58.68261719 -13.93725586 58.68261719 -14.7578125 55.52734375 C-15.22973022 53.76716919 -15.22973022 53.76716919 -15.71118164 51.97143555 C-16.02692139 50.7162915 -16.34266113 49.46114746 -16.66796875 48.16796875 C-17.00706419 46.86659922 -17.34749245 45.56557631 -17.68920898 44.26489258 C-18.38246547 41.61294258 -19.06411895 38.95838244 -19.73730469 36.30126953 C-20.65928409 32.67245318 -21.63178751 29.05852091 -22.61328125 25.4453125 C-23.17451723 23.33238677 -23.73448413 21.21912338 -24.29296875 19.10546875 C-24.55650146 18.14157227 -24.82003418 17.17767578 -25.09155273 16.18457031 C-26.54756895 10.49758971 -26.96368245 6.18601589 -25.73046875 0.41796875 C-20.26754367 -7.27978932 -7.41989712 -1.93025093 0 0 Z " fill="#000000" transform="translate(413.73046875,77.58203125)"/>
<path d="M0 0 C3.31541064 2.39838216 4.68360676 4.07059486 6 7.9375 C6 12.11429451 5.62201718 13.66932953 3 17 C-0.12028791 18.82262564 -3.40906278 20.02671475 -6.81201172 21.22265625 C-9.44099407 22.15667542 -12.04873627 23.1429717 -14.66015625 24.125 C-16.71009552 24.87729829 -18.76088662 25.62727929 -20.8125 26.375 C-22.2979834 26.9306665 -22.2979834 26.9306665 -23.81347656 27.49755859 C-29.34791632 29.45973509 -33.27928851 30.64962316 -39 29 C-41.65302128 26.82316203 -42.74745097 25.21223532 -43.44921875 21.84375 C-43.779047 17.44604003 -43.779047 17.44604003 -43 15 C-38.15964626 9.46185803 -31.39084713 7.62494773 -24.59667969 5.3503418 C-22.63030508 4.68928347 -20.67476251 4.00158292 -18.71875 3.31054688 C-6.64734644 -0.86566399 -6.64734644 -0.86566399 0 0 Z " fill="#000000" transform="translate(343,282)"/>
</svg>
